# Blender v2.81 (sub 16) OBJ File: ''
# www.blender.org
mtllib Spaceship.mtl
o Cube
v 1.000000 2.388118 -1.000000
v 1.000000 -1.000000 -1.000000
v 1.165336 1.112947 12.870137
v 0.697692 -0.721780 13.744299
v 1.000000 2.388118 10.796569
v 0.875696 -0.926917 10.564476
v 0.484362 -0.608750 7.113647
v 1.000000 2.388118 7.066829
v 1.584568 1.236248 -0.613155
v 6.187946 -1.838626 -1.903815
v 4.563780 -1.158004 4.788914
v 1.584568 1.236248 7.453674
v 1.000000 0.296831 -1.000000
v 1.000000 -0.040084 13.532217
v 1.401147 0.346390 10.793832
v 1.000000 0.296831 7.066829
v 2.814563 -0.029501 -0.768407
v 2.814563 -0.029501 7.298421
v 2.037048 0.497809 -1.767687
v 2.195653 -1.165345 -1.889675
v -1.000000 2.388118 -1.000000
v -1.000000 -1.000000 -1.000000
v -1.165336 1.112947 12.870137
v -0.697692 -0.721780 13.744299
v 0.000000 -1.000000 -1.000000
v 0.000000 1.526402 13.118711
v 0.000000 -1.000000 13.705363
v 0.000000 1.649368 -3.087249
v -1.000000 2.388118 10.796569
v -0.875696 -0.926917 10.564476
v 0.000000 -1.170071 10.766022
v 0.000000 2.616617 11.626069
v -0.484362 -0.608750 7.113647
v -1.000000 2.388118 7.066829
v 0.000000 -1.000000 7.066829
v 0.000000 2.547071 7.066829
v -1.584568 1.236248 -0.613155
v -6.187946 -1.838626 -1.903815
v -4.563780 -1.158004 4.788914
v -1.584568 1.236248 7.453674
v -1.000000 0.296831 -1.000000
v -1.000000 -0.040084 13.532217
v 0.000000 0.296831 -1.000000
v 0.000000 -0.040084 13.532217
v -1.401147 0.346390 10.793832
v -1.000000 0.296831 7.066829
v -2.814563 -0.029501 -0.768407
v -2.814563 -0.029501 7.298421
v -2.037048 0.497809 -1.767687
v -2.195653 -1.165345 -1.889675
v 0.000000 -1.165345 -1.889675
v 0.000000 0.497809 -1.767687
vt 0.250000 0.700549
vt 0.375000 0.700549
vt 0.375000 0.750000
vt 0.250000 0.750000
vt 0.470690 0.700549
vt 0.625000 0.700549
vt 0.625000 0.750000
vt 0.470690 0.750000
vt 0.470690 0.375000
vt 0.625000 0.375000
vt 0.625000 0.500000
vt 0.470690 0.500000
vt 0.625000 0.875000
vt 0.470690 0.875000
vt 0.750000 0.700549
vt 0.750000 0.750000
vt 0.625000 0.637141
vt 0.750000 0.637141
vt 0.470690 0.637141
vt 0.250000 0.637141
vt 0.375000 0.637141
vt 0.250000 0.500000
vt 0.375000 0.500000
vt 0.375000 0.637141
vt 0.470690 0.637141
vt 0.750000 0.500000
vt 0.470690 0.500000
vt 0.625000 0.500000
vt 0.625000 0.637141
vt 0.375000 0.500000
vt 0.375000 0.875000
vt 0.470690 0.500000
vt 0.470690 0.375000
vt 0.375000 0.375000
vt 0.375000 0.500000
vt 0.250000 0.500000
vt 0.375000 0.750000
vt 0.375000 0.700549
vt 0.470690 0.700549
vt 0.470690 0.750000
vt 0.625000 0.750000
vt 0.625000 0.700549
vt 0.470690 0.500000
vt 0.625000 0.500000
vt 0.625000 0.637141
vt 0.470690 0.637141
vt 0.375000 0.637141
vt 0.375000 0.500000
vt 0.470690 0.637141
vt 0.375000 0.637141
vt 0.470690 0.500000
vt 0.625000 0.637141
vt 0.625000 0.500000
vt 0.375000 0.500000
vt 0.470690 0.500000
vt 0.375000 0.500000
vn 0.3201 -0.9450 0.0673
vn 0.9928 0.0897 0.0796
vn 0.7350 -0.3515 -0.5799
vn 0.1730 0.3531 0.9194
vn 0.4594 0.7499 0.4761
vn 0.1869 0.9823 -0.0082
vn 0.9939 0.0965 -0.0541
vn 0.4133 -0.9067 -0.0845
vn 0.2538 -0.9667 0.0315
vn 0.1289 -0.7319 0.6691
vn -0.2317 0.9716 -0.0479
vn 0.7172 0.6969 0.0000
vn 0.3419 0.1680 -0.9246
vn 0.8917 0.4526 0.0000
vn -0.1298 -0.9901 0.0529
vn -0.0409 0.3036 -0.9519
vn 0.5059 0.8624 0.0159
vn -0.3419 -0.1680 0.9246
vn 0.9000 -0.4204 -0.1151
vn -0.0613 0.2387 0.9691
vn 0.0000 0.9674 0.2533
vn 0.9178 -0.3893 0.0779
vn 0.0000 0.0732 -0.9973
vn 0.0000 -0.9832 0.1827
vn 0.5961 -0.0012 0.8029
vn -0.3201 -0.9450 0.0673
vn -0.9928 0.0897 0.0796
vn -0.7350 -0.3515 -0.5799
vn -0.1730 0.3531 0.9194
vn -0.4594 0.7499 0.4761
vn -0.1869 0.9823 -0.0082
vn -0.9939 0.0965 -0.0541
vn -0.4133 -0.9067 -0.0845
vn -0.2538 -0.9667 0.0315
vn -0.1289 -0.7319 0.6691
vn 0.2317 0.9716 -0.0479
vn -0.7172 0.6969 0.0000
vn -0.3419 0.1680 -0.9246
vn -0.8917 0.4526 0.0000
vn 0.1298 -0.9901 0.0529
vn 0.0409 0.3036 -0.9519
vn -0.5059 0.8624 0.0159
vn 0.3419 -0.1680 0.9246
vn -0.9000 -0.4204 -0.1151
vn 0.0613 0.2387 0.9691
vn -0.9178 -0.3893 0.0779
vn -0.5961 -0.0012 0.8029
usemtl Material
s off
f 31/1/1 6/2/1 4/3/1 27/4/1
f 15/5/2 5/6/2 3/7/2 14/8/2
f 43/9/3 28/10/3 1/11/3 13/12/3
f 14/8/4 3/7/4 26/13/4 44/14/4
f 5/6/5 32/15/5 26/16/5 3/7/5
f 8/17/6 36/18/6 32/15/6 5/6/6
f 16/19/7 8/17/7 5/6/7 15/5/7
f 35/20/8 7/21/8 6/2/8 31/1/8
f 25/22/9 2/23/9 7/21/9 35/20/9
f 16/19/10 7/21/10 11/24/10 18/25/10
f 1/11/11 28/26/11 36/18/11 8/17/11
f 17/27/12 9/28/12 12/29/12 18/25/12
f 13/12/13 1/11/13 9/28/13 17/27/13
f 1/11/14 8/17/14 12/29/14 9/28/14
f 7/21/15 2/23/15 10/30/15 11/24/15
f 2/23/16 13/12/16 17/27/16 10/30/16
f 10/30/17 17/27/17 18/25/17 11/24/17
f 8/17/18 16/19/18 18/25/18 12/29/18
f 7/21/19 16/19/19 15/5/19 6/2/19
f 4/3/20 14/8/20 44/14/20 27/31/20
f 43/9/21 13/12/21 19/32/21 52/33/21
f 6/2/22 15/5/22 14/8/22 4/3/22
f 51/34/23 52/33/23 19/32/23 20/35/23
f 2/23/24 25/22/24 51/36/24 20/35/24
f 13/12/25 2/23/25 20/35/25 19/32/25
f 31/1/26 27/4/26 24/37/26 30/38/26
f 45/39/27 42/40/27 23/41/27 29/42/27
f 43/9/28 41/43/28 21/44/28 28/10/28
f 42/40/29 44/14/29 26/13/29 23/41/29
f 29/42/30 23/41/30 26/16/30 32/15/30
f 34/45/31 29/42/31 32/15/31 36/18/31
f 46/46/32 45/39/32 29/42/32 34/45/32
f 35/20/33 31/1/33 30/38/33 33/47/33
f 25/22/34 35/20/34 33/47/34 22/48/34
f 46/46/35 48/49/35 39/50/35 33/47/35
f 21/44/36 34/45/36 36/18/36 28/26/36
f 47/51/37 48/49/37 40/52/37 37/53/37
f 41/43/38 47/51/38 37/53/38 21/44/38
f 21/44/39 37/53/39 40/52/39 34/45/39
f 33/47/40 39/50/40 38/54/40 22/48/40
f 22/48/41 38/54/41 47/51/41 41/43/41
f 38/54/42 39/50/42 48/49/42 47/51/42
f 34/45/43 40/52/43 48/49/43 46/46/43
f 33/47/44 30/38/44 45/39/44 46/46/44
f 24/37/45 27/31/45 44/14/45 42/40/45
f 43/9/21 52/33/21 49/55/21 41/43/21
f 30/38/46 24/37/46 42/40/46 45/39/46
f 51/34/23 50/56/23 49/55/23 52/33/23
f 22/48/24 50/56/24 51/36/24 25/22/24
f 41/43/47 49/55/47 50/56/47 22/48/47
